<?xml version="1.0" encoding="UTF-8"?>
<svg id="Layer_1" xmlns="http://www.w3.org/2000/svg" version="1.1" xmlns:xlink="http://www.w3.org/1999/xlink" viewBox="0 0 284.27 518.4">
  <!-- Generator: Adobe Illustrator 29.8.7, SVG Export Plug-In . SVG Version: 2.1.1 Build 1)  -->
  <defs>
    <style>
      .st0 {
        fill: none;
      }

      .st1 {
        clip-path: url(#clippath);
      }
    </style>
    <clipPath id="clippath">
      <polygon class="st0" points="63.84 -.74 213.31 -.74 213.31 518.99 63.84 519.99 63.84 -.74"/>
    </clipPath>
  </defs>
  <g class="st1">
    <path d="M93.16,178.72c-.18,1.77-.8,3.46-1.13,5.2-.62,3.3-.17,6.73-.84,10.01-.07.36-.4.82-.69.6-.08-3.4-.16-6.79-.24-10.19-.04-1.78-.08-3.57.09-5.35.23-2.4.85-4.77.83-7.19-.02-2.84-.9-5.82.2-8.44.74,3.8,1.3,7.64,1.68,11.49.13,1.28.23,2.58.1,3.86M118.35,65.63c.01.82,0,1.65-.02,2.46-.2-1.13-.07-1.95.02-2.46M185.08,171.15c-.62,2.9-1.24,5.8-1.86,8.7-.21.97-.49,2.05-1.33,2.58.06-7.57-.2-15.15-.76-22.71.48-.47,1.2.24,1.48.86.68,1.47,1.35,2.93,2.03,4.4.28.6.56,1.21.71,1.86.33,1.41.03,2.89-.28,4.31M212.65,161.42c-.02-.2-.03-.39-.05-.59-.71-7.97-3.05-16.03-4.75-23.84-2.54-11.72-5.14-23.44-7.76-35.15-1.52-6.79-2.89-13.66-4.65-20.4-1.12-4.27-2.87-3.29-2.87-3.29-3.08-2.1-25.38-7.27-28.53-7.83-3.15-.56-6.5-3.5-8.88-5.24-2.37-1.74-3.31-.97-3.31-.96-.73-.85-.85-1.05-1.17-.39-.28-2.12-.64-8.95-.38-9.2,0,0,.84-2.05,1.12-3.08s.47-6.9.47-6.9c0,0,1.86.09,2.8-3.26.93-3.36.37-2.8.84-6.53.46-3.65-.16-8.37-3.59-4.99.1-1,.28-2.88.7-7.69.75-8.58-1.77-11.94-7.27-17.16C139.85-.3,128.47-1.89,121.94.07c-6.53,1.96-15.01,10.91-15.57,15.85s2.89,13.71,3.64,15.2c.19.38.52.93.9,1.53-1.14-.7-2.49-1-3.42.52-1.86,3.08.93,6.34,1.77,9.88s3.64,5.41,5.87,4.2c0,0,.09,6.71,2.52,9.23,0,0,.56,4.08.68,8.52-.02.01-1.44,1.15-2.68,3.74-.07-.26-.41.06-1.26,1.23,0,0-.91.56-2.94,1.19-2.03.63-27.06,9.23-29.09,10.56,0,0-2.24-.77-3.08,2.87-1.52,6.61-2.64,13.33-3.91,19.99-2.26,11.77-4.49,23.55-6.67,35.35-.94,5.07-1.87,10.14-2.77,15.22-.54,3.04-.74,6.35-1.55,9.33-.29,1.07-.75,1.66-.44,2.85.24.92.72,1.76.99,2.66.61,2.05.12,4.25.16,6.39.04,2.13,1.01,4.03,1.1,6.12.09,1.91.21,3.8.41,5.71.45,4.19.91,8.39,1.4,12.58.94,8.01,1.93,16.02,3.25,23.98.65,3.88.91,9.33,3.13,12.74.46,1.17,2.99,1.17,4.29.61.04-.02.09-.04.14-.06,1.18,2.8,3.42,7.91,4.51,9.04.1.11.18.18.27.28-.46,5.25-.85,10.68-1.13,16.14-.83,16.41.41,24.03,1.66,46.06,1.83,32.17-.81,55.58-2.01,60.06-1.19,4.47-3.19,51.71-3.23,60.96-.03,6.08.27,33.77-.33,36.15-.6,2.39,1.19,7.86,2.09,9.65.9,1.79-.1,4.77.2,7.75.3,2.98.6,8.95,1.49,8.35.16-.1.88-.35,2-.66.05,1.59-.05,3.73-.69,5.59-1.19,3.48-5.96,7.76-6.56,11.33-.6,3.58,0,4.27,0,4.27,0,0-.33,1.59-.26,2.78s4.47,2.78,4.47,2.78h18s4.84-3.37,5.14-4.07c.3-.7,0-2.29,0-2.29,0,0-1.13-1.09.13-1.79,1.26-.7,2.75-.99,2.85-1.79.1-.8-.5-6.36-.5-6.36,0,0,.32-1.69.51-3.08.19-1.39.98-5.94-.91-9.53,1.12.23,2.13.56,2.96,1.01,0,0,.6.3,1.49-5.67.89-5.96,2.68-23.77,1.49-30.63-1.19-6.86,2.09-27.74,2.39-44.14.3-16.4,4.38-56.52,7.15-72.98.49-2.87,1.37-7.73,2.47-13.48.06.46.14.86.25,1.12.29-1.57.99-5.41,1.26-6.9.33-1.8.68-3.82,1.04-5.61.76-3.68,1.25-7.59,2.07-11.26.29-1.29.5-2.55.69-3.83,2.6-12.16,4.94-21.7,5.47-19.8,1.23,4.39,15.79,81.72,16.87,91.88,1.15,10.74.4,18.49,1.29,25.05.9,6.56,0,34.3,0,34.3.6,8.65.79,18.19.4,23.86-.4,5.67-.7,16.21-1,19.19s-.89,3.28,0,5.37c.9,2.09-.88,10.14,1.2,12.53.57.65,1.93.53,3.84.16.08.36.11.72.05,1-.2.89-2.12,7.36.03,10.24,0,0-.58.6-.51,1.79.08,1.19,0,5.77,0,5.77,0,0,2.07.89,3.66,1.89,1.59.99.2,2.68.7,4.47s4.41,3.38,4.41,3.38h17.96s3.58-1.09,4.67-2.39c0,0,.3-2.88,0-3.28s.5-2.09-.3-4.27c-.8-2.19-6.26-8.45-7.06-11.14-.7-2.37-1.94-2.73-1.82-5.92.07.04.13.08.2.13,0,0,.6-.04,2.39-5.71,1.79-5.67,3.88-8.35,3.58-11.63s-.84-14.12.03-17.1,2.36-23.56,3.25-30.72-1.41-57.71-2.6-72.98c-.41-5.33.6-65.8,1.79-79.22.44-5,.09-13.53-.53-22.27.45,2.43.88,4.9.88,4.9,0,0,.76-1.91,1.51-4.38s1.82-12.32,1.82-12.32c-1.05-1.1-4.46-3.16-5.53-3.8,0-.07,0-.15-.02-.22.22-1.82.24-4.26.24-4.26,3.12,4.3,8.83,4.97,10.93,5.07.32,0,.61-.12.82-.35h.03l-.02-.02c.1-.11.18-.23.23-.38,1.79-5.67,2.81-11.63,4-17.45,1.61-7.89,3.12-15.8,4.58-23.72.73-3.94,1.44-7.89,2.14-11.84.32-1.8.57-3.63.94-5.43.47-2.28,1.43-4.42,1.59-6.78.04-.66.04-1.33.22-1.96.28-.96.97-1.78,1.14-2.77.1-.61,0-1.23-.11-1.84-.17-.97-.43-1.97-.51-2.95"/>
  </g>
</svg>