<?xml version="1.0" encoding="UTF-8"?>
<svg xmlns="http://www.w3.org/2000/svg" version="1.1" viewBox="0 0 188.59 204.5">
  <!-- Generator: Adobe Illustrator 29.8.7, SVG Export Plug-In . SVG Version: 2.1.1 Build 1)  -->
  <defs>
    <style>
      .st0 {
        stroke: #000;
      }

      .st0, .st1 {
        stroke-miterlimit: 10;
      }

      .st0, .st1, .st2 {
        fill: none;
      }

      .st1 {
        stroke: #231f20;
        stroke-width: .5px;
      }

      .st3 {
        fill: #231f20;
        font-family: MyriadPro-Regular, 'Myriad Pro';
        font-size: 9px;
      }

      .st2 {
        stroke: #111;
        stroke-linecap: round;
        stroke-linejoin: round;
      }
    </style>
  </defs>
  <g id="Layer_1">
    <path class="st2" d="M23.55,164.08V40.42c0-5.88,2.94-8.82,8.82-8.82h15.84c6.72,0,10.08,3.36,10.08,10.08v105.66h70.56v16.74H23.55Z"/>
  </g>
  <g id="Dimensions">
    <g id="Manual_Dimension">
      <line class="st1" x1="20.59" y1="166.08" x2="20.59" y2="174.57"/>
      <line class="st1" x1="128.85" y1="166.08" x2="128.85" y2="174.57"/>
      <text class="st3" transform="translate(62.76 187.65)"><tspan x="0" y="0" xml:space="preserve"> 1.5 in </tspan></text>
      <line class="st0" x1="128.85" y1="172.57" x2="20.59" y2="172.57"/>
    </g>
    <g id="Manual_Dimension1" data-name="Manual_Dimension">
      <line class="st1" x1="58.41" y1="35.42" x2="58.41" y2="24.28"/>
      <line class="st1" x1="22.55" y1="35.42" x2="22.55" y2="24.28"/>
      <text class="st3" transform="translate(28.52 17.28)"><tspan x="0" y="0" xml:space="preserve"> 0.5 in </tspan></text>
      <line class="st0" x1="22.55" y1="26.28" x2="58.41" y2="26.28"/>
    </g>
    <g id="Manual_Dimension2" data-name="Manual_Dimension">
      <line class="st1" x1="131.85" y1="29.46" x2="139.88" y2="29.46"/>
      <line class="st1" x1="131.85" y1="164.08" x2="139.88" y2="164.08"/>
      <text class="st3" transform="translate(152.96 113.34) rotate(-90)"><tspan x="0" y="0" xml:space="preserve"> 1.875 in </tspan></text>
      <line class="st0" x1="137.88" y1="164.08" x2="137.88" y2="29.46"/>
    </g>
  </g>
</svg>