<?xml version="1.0" encoding="UTF-8"?>
<svg id="Layer_1" xmlns="http://www.w3.org/2000/svg" version="1.1" viewBox="0 0 831.45 100">
  <!-- Generator: Adobe Illustrator 29.8.7, SVG Export Plug-In . SVG Version: 2.1.1 Build 1)  -->
  <defs>
    <style>
      .st0 {
        fill: #fff;
      }
    </style>
  </defs>
  <g>
    <path class="st0" d="M688.66,0c-25.46,0-47.09,18.31-47.09,50.91,0,28.57,17.22,49.09,46.57,49.09,25.58,0,47.22-18.05,47.22-50.78,0-28.96-17.74-49.22-46.7-49.22ZM689.43,93.64c-20.12,0-26.72-21.56-26.72-46.49s5.68-40.78,24.65-40.78c20.13,0,26.72,21.69,26.72,46.62s-5.68,40.65-24.65,40.65Z"/>
    <polygon class="st0" points="106.93 11.58 106.93 88.69 97.51 98.49 137.67 98.49 128.26 88.71 128.26 53.36 157.34 53.36 157.34 46.93 128.26 46.93 128.26 7.87 155.29 7.87 167.66 18.93 167.66 1.52 97.51 1.54 106.93 11.58"/>
    <path class="st0" d="M365.11,24.41c0-17.01-14.43-22.89-38.49-22.89h-35.79l9.4,10.05v77.14l-9.4,9.76h37.89l-9.06-9.76v-34.8h7.89l25.9,44.56h22.1l-29.13-48.8c12.6-4.03,18.69-13.16,18.69-25.26ZM339.68,42.99c-4.08,3.12-9.82,4.48-17.12,4.48h-2.91s0-39.66,0-39.66h5.51c13.73,0,21.04,3.07,21.04,18.69,0,8.5-2.44,13.38-6.53,16.49Z"/>
    <path class="st0" d="M593.96,47.2c11.96-3.82,19.97-11.59,19.97-22.41,0-15.65-10.94-23.27-39.95-23.27h-34l9.4,10.07v77.13l-9.4,9.78,33.24-.02c29.9,0,45.42-8.8,45.42-27.38,0-12.35-9.16-20.95-24.68-23.88ZM568.97,7.9h4.25c1.28,0,2.5.06,3.67.17,11.27,1.09,17.33,6.81,17.33,18.81,0,13.71-7.38,19.4-18.26,20.1-.72.05-1.47.07-2.22.07h-4.76V7.9ZM575,92.05h-6.03v-38.64h7.3c15.65,0,22.64,7.57,22.64,20.68,0,14.25-7.5,17.96-23.92,17.96Z"/>
    <path class="st0" d="M229.67,1.52h-20.48l5.25,13.59-26.2,70.94-.9,2.44-8.41,10h23.11l-7.85-9.33,1.04-2.8,7.22-19.56h32.32l8.41,21.37-8.69,10.33h37.81l-8.49-10.09L229.67,1.52ZM204.83,60.36l13.27-35.93,14.14,35.93h-27.41Z"/>
    <polygon class="st0" points="518.47 98.49 510.12 88.64 497.45 12.43 505.59 1.65 481.2 1.65 457.36 70.49 432.63 1.65 407.5 1.65 415.04 12.58 404.03 88.64 395.47 98.49 419.11 98.49 410.59 88.64 419.38 28.73 446.07 98.49 453.97 98.49 479.94 25.69 489.68 88.64 482.45 98.49 518.47 98.49"/>
    <polygon class="st0" points="805.2 1.52 814.81 12.95 813.79 15.04 795.38 52.45 794.85 52.45 775.35 13.02 784.93 1.52 745.97 1.52 755.55 13.09 779.85 58.4 779.85 88.71 770.45 98.47 808.91 98.47 799.49 88.71 799.49 57.66 820.27 15.43 821 13.94 831.45 1.52 805.2 1.52"/>
  </g>
  <polygon class="st0" points="0 33.61 0 98.46 39.01 98.46 39.01 .8 0 33.61"/>
</svg>